PathFileType	4	(X/Y/Z)	C:/Users/opensim2020/Desktop/walking_exp_matlab/subject02_walking09_straight_01.trc	
DataRate	CameraRate	NumFrames	NumMarkers	Units	OrigDataRate	OrigDataStartFrame	OrigNumFrames	
100.00	100.00	9	42	mm	100.00	745	293	
Frame#	Time	LFHD			RFHD			LBHD			RBHD			C7			T10			CLAV			STRN			RBAK			LSHO			LUPA			LELB			LFRM			LWRA			LWRB			LFIN			RSHO			RUPA			RELB			RFRM			RWRA			RWRB			RFIN			LASI			RASI			LPSI			RPSI			LTHI			LKNE			LTIB			LANK			LHEE			LTOE			RTHI			RKNE			RTIB			RANK			RHEE			RTOE			*39			*40			*41			
		X1	Y1	Z1	X2	Y2	Z2	X3	Y3	Z3	X4	Y4	Z4	X5	Y5	Z5	X6	Y6	Z6	X7	Y7	Z7	X8	Y8	Z8	X9	Y9	Z9	X10	Y10	Z10	X11	Y11	Z11	X12	Y12	Z12	X13	Y13	Z13	X14	Y14	Z14	X15	Y15	Z15	X16	Y16	Z16	X17	Y17	Z17	X18	Y18	Z18	X19	Y19	Z19	X20	Y20	Z20	X21	Y21	Z21	X22	Y22	Z22	X23	Y23	Z23	X24	Y24	Z24	X25	Y25	Z25	X26	Y26	Z26	X27	Y27	Z27	X28	Y28	Z28	X29	Y29	Z29	X30	Y30	Z30	X31	Y31	Z31	X32	Y32	Z32	X33	Y33	Z33	X34	Y34	Z34	X35	Y35	Z35	X36	Y36	Z36	X37	Y37	Z37	X38	Y38	Z38	X39	Y39	Z39	X40	Y40	Z40	X41	Y41	Z41	X42	Y42	Z42	

220	2.190	-1086.98047	512.63184	1756.54065	-944.22516	494.13348	1736.62891	-1114.84253	401.25183	1658.89978	-975.98737	371.50018	1635.03723	-1034.73853	354.27917	1522.18982	-1029.85168	310.17868	1246.47180	-1047.99170	496.99500	1460.96167	-1036.51782	556.69281	1291.78699	-967.24115	304.51080	1347.63660	-1216.29504	420.59286	1495.85913	-1300.59216	402.41922	1294.20337	-1313.96851	397.88614	1154.83740	-1332.87720	405.66837	1024.45483	-1309.81763	461.67969	897.23834	-1340.97534	414.41647	901.65009	-1345.83643	432.47375	836.61316	-849.52063	437.29730	1495.34619	-763.23743	423.22327	1304.44897	-744.41425	451.23608	1159.50989	-727.84399	498.92047	1047.77490	-751.87958	565.60059	930.67523	-716.61523	521.71625	919.73364	-718.29150	568.03931	863.02777	-1165.44971	563.63281	999.82642	-910.64246	544.64850	971.91980	-1100.49011	346.81506	1032.98450	-986.13660	332.91046	1025.85254	-1221.46704	534.42963	687.87122	-1187.81409	519.78748	483.06265	-1185.29199	476.46524	291.68008	-1140.96960	488.67487	71.96753	-1089.02087	453.97964	44.63340	-1154.06995	645.53827	38.00124	-829.40369	462.98285	669.62219	-831.43530	470.38641	471.01804	-842.49103	324.60535	360.36844	-887.51349	190.98189	225.94402	-956.07788	147.38716	199.32504	-836.78156	243.32245	81.41242	-1014.94000	387.79800	1800.49817	-3356.93091	2845.99243	1034.20300			 
221	2.200	-1087.64905	521.44641	1757.62524	-944.99445	502.83527	1737.45044	-1115.90540	410.16586	1659.96436	-977.18152	380.01627	1635.91650	-1036.34827	363.01947	1523.59021	-1032.23950	318.50281	1247.70764	-1049.05688	505.56302	1461.78918	-1037.63403	564.81384	1292.46790	-969.58807	312.42413	1348.80542	-1217.56665	430.30872	1497.18433	-1302.35364	414.61041	1295.48499	-1316.52698	412.38425	1155.90491	-1334.72620	423.48303	1025.78381	-1310.31836	482.23804	900.12457	-1342.24707	435.49857	902.93951	-1346.98474	455.68936	838.82019	-850.90149	445.27295	1496.10571	-765.17889	429.70108	1305.12683	-746.32794	456.63062	1160.01563	-729.80304	502.36154	1047.40417	-753.49652	567.65338	929.49237	-718.31262	523.35944	919.23651	-719.88098	569.00220	861.92767	-1166.57959	571.56458	999.67102	-911.04095	552.27240	973.59351	-1102.27954	354.62021	1034.18152	-988.15594	340.36252	1027.11206	-1222.22705	538.67987	687.42261	-1188.36328	521.41821	483.00131	-1185.14368	476.49469	291.99222	-1140.85681	488.60480	72.03664	-1088.99353	453.91241	44.79292	-1154.13574	645.53058	37.99566	-829.65149	476.72772	671.47113	-832.54150	486.81384	472.87329	-844.61682	342.27353	360.81253	-889.89337	210.70511	224.37759	-958.22174	168.08513	195.51260	-836.06403	265.82870	82.32387	-1015.86047	396.44473	1801.45776	-3356.91260	2845.92407	1034.08704			 
222	2.210	-1088.31580	530.29828	1758.61365	-945.57599	511.20456	1738.30579	-1116.91125	419.10165	1660.98291	-978.59204	388.33759	1636.60779	-1037.85938	371.70569	1524.72644	-1034.55054	326.75891	1248.87170	-1050.03601	514.07178	1462.55676	-1038.79028	572.81915	1293.04309	-971.85175	320.49432	1349.81824	-1218.99585	440.13776	1498.67163	-1304.47839	426.91086	1296.97681	-1319.22021	427.08554	1157.28564	-1336.77466	441.73712	1027.04529	-1310.69312	502.88690	903.33502	-1343.82373	456.68140	904.75665	-1347.90759	478.99612	841.35535	-852.17596	453.15207	1496.62561	-766.87360	436.06461	1305.69580	-748.42023	461.33255	1160.45898	-731.53772	506.01617	1047.39966	-755.08661	569.46436	928.44824	-719.98157	525.34308	918.92621	-721.38556	569.85358	860.76892	-1167.78735	579.20935	999.71143	-911.78607	559.59991	975.21289	-1103.74219	362.28415	1035.17908	-989.87421	348.03455	1028.21252	-1223.02271	542.95227	687.08801	-1189.12793	522.70068	483.02359	-1184.81335	476.23688	292.29510	-1140.69763	488.55264	72.09779	-1088.96399	453.87997	44.92899	-1154.24805	645.51245	37.95193	-830.05798	490.25171	673.03168	-833.68475	502.83469	474.65646	-846.58630	359.93216	360.82233	-891.67114	231.14146	221.76192	-960.08746	188.93335	191.13838	-835.74121	289.44995	82.37475	-1016.70148	405.15079	1802.29639	-3360.38916	2845.28931	1033.84180			 
223	2.220	-1088.80457	539.23944	1759.49609	-946.14581	519.82104	1738.91687	-1117.91345	428.08792	1661.94470	-979.56384	396.93439	1637.64185	-1039.51123	380.22739	1525.64697	-1036.74768	334.91714	1250.01306	-1051.00903	522.53485	1463.26990	-1039.93298	580.88208	1293.57239	-973.91089	328.79349	1350.58850	-1220.31348	449.89185	1500.04895	-1306.83081	439.28522	1298.60681	-1321.89551	441.85587	1158.80029	-1338.69995	459.88843	1028.80408	-1310.94348	523.66943	906.80426	-1344.75244	477.98593	906.78766	-1348.85388	502.46579	844.38568	-853.42242	460.99109	1497.12695	-768.49945	442.36288	1306.19519	-750.24939	466.29202	1160.60217	-733.22888	509.45795	1047.29224	-756.53186	571.46283	927.41620	-721.41187	527.33569	918.57172	-722.85559	570.83380	859.75690	-1169.07056	586.59735	999.92206	-912.68201	567.04327	976.88507	-1105.01831	369.75418	1036.01343	-991.20477	355.64035	1029.20227	-1223.79565	546.86481	686.65363	-1189.43372	524.31366	482.92813	-1184.58447	476.17691	292.60550	-1140.59473	488.53708	72.14985	-1088.87585	453.87589	44.95736	-1154.32556	645.47253	37.90960	-830.35266	503.48825	674.70154	-834.95178	518.63159	476.54681	-848.52893	377.73199	360.21783	-893.35651	252.05544	218.27205	-961.50116	210.54016	185.74692	-835.68915	314.00778	81.69903	-1017.48505	413.87350	1803.12195	-3360.28125	2845.17407	1034.00769			 
224	2.230	-1089.18774	548.15851	1760.20630	-946.66626	528.20251	1739.24731	-1118.76685	437.03989	1662.82471	-980.24939	405.76071	1638.10901	-1041.06958	388.75473	1526.60132	-1038.87732	342.98331	1250.99756	-1051.92346	530.99817	1463.89514	-1041.01294	588.82031	1293.98352	-976.04132	336.69482	1351.47925	-1221.51831	459.55261	1501.45361	-1308.79590	451.63626	1300.24854	-1324.40186	456.67581	1160.40906	-1340.44495	478.17526	1030.63757	-1311.09631	544.25262	910.58197	-1345.82788	499.31207	909.15497	-1349.14160	525.85223	847.37177	-854.68695	468.86975	1497.53284	-769.93103	448.80609	1306.72290	-752.01282	470.92761	1160.96472	-734.82648	512.80505	1047.07300	-757.92267	573.44122	926.42450	-723.10895	528.60681	917.96399	-724.22620	571.92169	858.81665	-1170.34192	593.74365	1000.24512	-913.96466	574.60834	978.42767	-1105.92029	377.13528	1036.67761	-992.19769	363.26724	1030.01074	-1224.16357	549.81616	686.24109	-1190.01794	525.82275	482.90652	-1184.55774	476.56815	292.86975	-1140.57117	488.48770	72.28514	-1088.80310	453.84497	45.03733	-1154.37024	645.48993	37.82009	-830.73517	516.44189	676.25610	-836.28748	534.33923	478.21957	-850.26172	395.67767	359.14572	-894.84467	273.31970	214.15520	-962.65808	232.88667	179.28116	-835.83356	339.82516	80.34264	-1018.14612	422.57297	1803.82605	-3360.26855	2845.16016	1034.13574			 
225	2.240	-1089.44177	557.10480	1760.89636	-947.08008	536.76770	1739.84192	-1119.43994	445.98038	1663.59729	-981.18640	414.26422	1638.69104	-1042.41541	397.35602	1527.54724	-1040.81714	351.03738	1251.93933	-1052.73181	539.40894	1464.42847	-1041.98706	596.72943	1294.29053	-978.15021	344.27020	1352.49500	-1222.41956	469.16757	1502.70605	-1310.63379	463.92810	1301.91772	-1326.84680	471.52243	1162.14453	-1342.10901	496.37311	1032.80847	-1311.12537	564.83502	914.33478	-1346.74500	520.65997	911.77289	-1349.92578	548.90747	851.05981	-855.84271	476.58847	1497.80359	-771.51630	455.13156	1307.24353	-753.84387	475.38754	1161.04492	-736.31384	516.19946	1046.89746	-759.25568	575.52502	925.52283	-724.45062	530.69971	917.57391	-725.64374	573.09637	857.82007	-1171.63184	600.67706	1000.81085	-915.22253	582.16730	980.22083	-1106.55334	384.44833	1037.11426	-992.77521	371.01801	1030.64709	-1224.78748	553.54395	685.85724	-1190.39087	527.65442	482.85291	-1184.78345	477.51855	293.08112	-1140.47070	488.60602	72.41997	-1088.64099	453.86209	44.93729	-1154.43127	645.48987	37.78570	-831.23138	529.07434	677.81775	-837.67621	549.74109	479.98706	-851.83868	413.77600	357.61765	-895.94598	295.49371	209.17619	-963.65625	255.39925	172.76314	-836.32324	366.20706	78.38427	-1018.61523	431.37460	1804.39319	-3360.42090	2845.22095	1034.00964			 
226	2.250	-1089.60486	566.08002	1761.46448	-947.24976	545.56360	1740.09082	-1120.27148	454.96603	1664.38940	-981.98096	422.89621	1639.08850	-1043.82532	405.84497	1528.13232	-1042.74255	359.00079	1252.52136	-1053.50562	547.84174	1464.86755	-1042.95105	604.61267	1294.54260	-980.12164	352.03955	1353.22791	-1223.37268	478.72122	1504.05994	-1312.35803	476.28644	1303.53906	-1329.17078	486.32214	1163.91309	-1343.73291	514.68011	1034.93335	-1311.15027	585.39606	918.40356	-1347.55225	541.96100	914.59143	-1349.84521	571.86957	854.56873	-856.87634	484.28448	1497.92163	-772.70050	461.71341	1307.39209	-755.39166	479.98611	1161.32544	-737.70667	519.48517	1046.72559	-760.17865	577.44055	924.50775	-725.78876	532.85132	917.24701	-726.75409	574.58618	856.96075	-1172.93994	607.40594	1001.39563	-916.68994	589.91254	981.71307	-1106.98499	391.61996	1037.40332	-993.02515	378.79388	1031.20105	-1224.95557	557.19708	685.86523	-1190.63330	529.67401	482.75607	-1185.14526	478.93594	293.23233	-1140.31470	488.70395	72.41240	-1088.66016	453.81912	45.16171	-1154.52368	645.51331	37.76484	-831.85974	541.46814	679.29504	-839.05139	565.07800	481.62781	-853.15149	432.14038	355.60892	-896.87372	318.00061	203.64682	-964.10291	278.96161	165.71658	-836.90326	393.62808	75.99187	-1019.10199	440.16937	1804.59143	-3357.07349	2845.84912	1034.13013			 
227	2.260	-1089.77112	575.07770	1761.88965	-947.69495	553.63513	1740.18054	-1120.85132	463.85828	1665.06128	-982.78021	431.43079	1639.54077	-1044.99768	414.44962	1528.84131	-1044.37549	367.14554	1253.33423	-1054.18042	556.18250	1465.25989	-1043.81958	612.54718	1294.73584	-981.96576	359.84280	1353.90979	-1224.26123	488.11630	1505.14160	-1313.72375	488.53281	1305.09070	-1331.06567	501.28049	1165.49158	-1345.13416	532.74268	1037.28870	-1311.18140	605.92200	922.67627	-1348.22192	563.15912	917.54968	-1349.67566	594.49841	858.14154	-857.88074	491.88376	1497.99036	-773.98920	467.22971	1307.52905	-756.75977	484.74783	1161.34607	-739.00500	522.96472	1046.29578	-761.49078	580.02527	923.73364	-726.87897	534.90747	916.68915	-727.71271	576.27307	856.28082	-1174.27075	614.01599	1001.88556	-918.48511	597.50739	982.88068	-1107.03833	398.74918	1037.56714	-992.99237	386.46237	1031.79236	-1225.16406	560.75641	685.57910	-1190.87085	531.86084	482.69241	-1185.46411	480.57535	293.36969	-1140.25037	488.83252	72.48815	-1088.64624	453.86514	45.32763	-1154.57581	645.54327	37.68501	-832.44202	553.52209	680.64404	-840.51196	580.42975	482.90170	-854.26465	450.84766	353.09366	-897.38910	341.24500	197.69698	-964.64484	303.65643	157.67725	-837.42987	421.75519	73.35062	-1019.63947	448.95923	1805.47559	-3360.28125	2845.17529	1033.98376			 
228	2.270	-1089.85339	584.07532	1762.21948	-947.68646	562.64752	1740.21252	-1121.38062	472.77557	1665.66260	-983.31952	439.80676	1639.84131	-1046.19189	422.82059	1529.21936	-1045.85425	375.20001	1253.90283	-1054.75891	564.54370	1465.57898	-1044.66919	620.39417	1294.86255	-983.80554	367.69046	1354.52673	-1225.00305	497.50085	1506.16443	-1315.29370	500.83820	1306.67334	-1333.09363	516.08185	1167.18237	-1346.61316	550.80402	1039.69299	-1311.08606	626.25189	926.90411	-1348.75684	584.17877	920.65149	-1349.66711	617.06720	862.08356	-858.68536	499.45432	1497.85034	-775.28607	473.25928	1307.71814	-758.19122	489.07037	1161.34937	-740.17004	526.32593	1045.96179	-762.38916	582.32312	922.84546	-728.08691	537.35938	916.32239	-728.85840	577.94519	855.64197	-1175.70166	620.51154	1002.20148	-920.20404	605.45691	983.90125	-1107.03882	405.79037	1037.69092	-992.77673	394.11926	1032.41724	-1225.35840	564.52179	685.25873	-1191.01721	534.15356	482.60919	-1185.56470	482.17038	293.31430	-1140.09497	488.94427	72.56851	-1088.19958	453.96005	45.43892	-1154.66748	645.60376	37.64991	-833.10620	565.19922	681.94543	-841.90393	595.42426	484.26172	-854.95789	469.70691	350.26636	-897.77222	365.08401	191.33369	-964.84918	327.66757	150.21159	-838.04254	450.32220	70.54105	-1019.75854	457.77338	1805.82886						 
